# xmcd
# 
# Track frame offsets:
#   150
#   17435
#   33187
#   49761
#   68753
#   88519
#   103989
#   122276
#   138937
#   159096
#   179246
#   202165
#   221448
#   236249
#   249457
#   267093
# 
# Disc length: 3784 seconds
# 
# Revision: 2
# Processed by: cddbd v1.5.2PL0 Copyright (c) Steve Scherf et al.
# Submitted via: Synapstar 1.0 
# 
DISCID=da0ec610
DTITLE=Various Artist - CB 5124-03
DYEAR=2009
DGENRE=Country
TTITLE0=Jason Aldean - She's Country
TTITLE1=Heidi Newfield - Cry, Cry ('Til The Sun Shines)
TTITLE2=Zac Brown Band - Whatever It Is
TTITLE3=Taylor Swift - Fearless
TTITLE4=Brad Paisley - Then
TTITLE5=Sarah Buxton - Space
TTITLE6=Keith Urban - Kiss A Girl
TTITLE7=Point Of Grace - I Wish
TTITLE8=Jason Michael Carroll - Where I'm From
TTITLE9=Hank Williams, Jr. - Red, White And Pinkslip Blues
TTITLE10=Taylor Swift - Fifteen
TTITLE11=Rascal Flatts - Here Comes Goodbye
TTITLE12=Melissa Lawson - What If It All Goes Right
TTITLE13=Lost Trailers, The - How 'Bout You Don't
TTITLE14=Miranda Lambert - Dead Flowers
TTITLE15=Emerson Drive - Belongs To You
EXTD=
EXTT0=
EXTT1=
EXTT2=
EXTT3=
EXTT4=
EXTT5=
EXTT6=
EXTT7=
EXTT8=
EXTT9=
EXTT10=
EXTT11=
EXTT12=
EXTT13=
EXTT14=
EXTT15=
PLAYORDER=
